<svg width="139" height="39" viewBox="0 0 139 39" fill="none" xmlns="http://www.w3.org/2000/svg">
<path d="M18.608 5.69196V20H22.612V0.399964H16.816L11.356 14.064L6.09202 0.399964H0.184021V20H4.18802V5.63596L9.90002 20H12.756L18.608 5.69196Z" fill="black"/>
<path d="M43.8623 20L36.4983 0.399964H33.2503L25.2423 20H29.6943L31.0103 16.36H37.9823L39.2423 20H43.8623ZM34.5663 6.50396H34.5943L36.8623 13.084H32.1863L34.5663 6.50396Z" fill="black"/>
<path d="M58.5717 20V16.612H50.5357V0.399964H46.5317V20H58.5717Z" fill="black"/>
<path d="M78.4795 20L71.1155 0.399964H67.8675L59.8595 20H64.3115L65.6275 16.36H72.5995L73.8595 20H78.4795ZM69.1835 6.50396H69.2115L71.4795 13.084H66.8035L69.1835 6.50396Z" fill="black"/>
<path d="M88.0671 20V11.908L94.6191 0.399964H89.9431L86.2471 7.45596H86.1911L82.8031 0.399964H77.8191L84.0631 11.796V20H88.0671Z" fill="black"/>
<path d="M107.299 5.24396L109.595 2.38796C107.607 0.875964 105.619 0.0639648 103.099 0.0639648C99.8513 0.0639648 96.6873 1.82796 96.6873 5.55196C96.6873 9.30396 99.5433 10.424 102.091 11.376C104.079 12.104 105.871 12.748 105.871 14.428C105.871 16.164 104.331 16.92 102.763 16.92C100.719 16.92 99.4873 15.996 97.8913 14.456L95.2313 17.06C97.3593 19.188 99.7113 20.336 102.735 20.336C106.151 20.336 110.155 18.516 110.155 14.26C110.155 10.144 106.823 8.85596 104.051 7.90396C102.539 7.37196 100.691 6.95196 100.691 5.43996C100.691 4.15196 101.895 3.47996 103.239 3.47996C104.751 3.47996 106.207 4.31996 107.299 5.24396Z" fill="black"/>
<path d="M117.309 20V0.399964H113.305V20H117.309Z" fill="black"/>
<path d="M138.581 20L131.217 0.399964H127.969L119.961 20H124.413L125.729 16.36H132.701L133.961 20H138.581ZM129.285 6.50396H129.313L131.581 13.084H126.905L129.285 6.50396Z" fill="black"/>
<path d="M37.552 28.3039V26.7999H30.272V28.3039H33.056V37.9999H34.768V28.3039H37.552Z" fill="black"/>
<path d="M43.9962 37.9999V26.7999H42.2842V37.9999H43.9962Z" fill="black"/>
<path d="M51.1892 32.3999C51.1892 29.9359 52.9492 28.1279 55.3812 28.1279C56.2132 28.1279 56.9972 28.4159 57.6692 28.8479L58.4852 27.5359C57.5572 26.9439 56.5172 26.6079 55.3812 26.6079C52.0692 26.6079 49.3652 29.1039 49.3652 32.3999C49.3652 35.9039 52.0052 38.1919 55.3492 38.1919C56.5972 38.1919 57.7652 37.8079 58.7572 37.1039L57.8292 35.8399C57.0772 36.3839 56.2452 36.6719 55.3812 36.6719C52.8852 36.6719 51.1892 35.0079 51.1892 32.3999Z" fill="black"/>
<path d="M71.9784 26.7999H69.8824L65.4024 32.2399V26.7999H63.6904V37.9999H65.4024V34.6079L67.0664 32.6239L70.1704 37.9999H72.1704L68.2344 31.2479L71.9784 26.7999Z" fill="black"/>
<path d="M83.538 37.9999V36.4959H78.418V32.9759H83.538V31.4719H78.418V28.3039H83.538V26.7999H76.706V37.9999H83.538Z" fill="black"/>
<path d="M95.0833 28.3039V26.7999H87.8033V28.3039H90.5873V37.9999H92.2993V28.3039H95.0833Z" fill="black"/>
<path d="M105.563 29.0399L106.603 27.8079C105.563 27.0079 104.443 26.6079 103.067 26.6079C101.243 26.6079 99.6432 27.5999 99.6432 29.7119C99.6432 31.5519 101.243 32.3039 102.763 32.8479C104.011 33.2799 105.179 33.6959 105.179 34.8639C105.179 36.1439 104.107 36.6719 103.019 36.6719C101.883 36.6719 101.099 36.3359 100.091 35.3279L98.8912 36.4639C100.091 37.6479 101.339 38.1919 103.003 38.1919C104.763 38.1919 107.003 37.1999 107.003 34.7039C107.003 32.5119 105.131 31.7919 103.547 31.2479C102.395 30.8479 101.355 30.5119 101.355 29.5679C101.355 28.6399 102.139 28.1279 103.227 28.1279C104.107 28.1279 105.019 28.5439 105.563 29.0399Z" fill="black"/>
</svg>
